[Header]
FileType HTR
DataType HTRS
FileVersion 1
NumSegments 64
NumFrames 2
DataFrameRate 24
EulerRotationOrder ZYX
CalibrationUnits mm
RotationUnits Degrees
GlobalAxisofGravity Y
BoneLengthAxis Y
ScaleFactor 1.0
[SegmentNames&Hierarchy]
Hips	GLOBAL
Spine	Hips
Spine1	Spine
Spine2	Spine1
Neck	Spine2
Head	Neck
LeftEye	Head
RightEye	Head
LeftShoulder	Spine2
LeftArm	LeftShoulder
LeftForeArm	LeftArm
LeftHand	LeftForeArm
LeftHandThumb1	LeftHand
LeftHandThumb2	LeftHandThumb1
LeftHandThumb3	LeftHandThumb2
LeftHandThumb4	LeftHandThumb3
LeftHandIndex1	LeftHand
LeftHandIndex2	LeftHandIndex1
LeftHandIndex3	LeftHandIndex2
LeftHandIndex4	LeftHandIndex3
LeftHandMiddle1	LeftHand
LeftHandMiddle2	LeftHandMiddle1
LeftHandMiddle3	LeftHandMiddle2
LeftHandMiddle4	LeftHandMiddle3
LeftHandRing1	LeftHand
LeftHandRing2	LeftHandRing1
LeftHandRing3	LeftHandRing2
LeftHandRing4	LeftHandRing3
LeftHandPinky1	LeftHand
LeftHandPinky2	LeftHandPinky1
LeftHandPinky3	LeftHandPinky2
LeftHandPinky4	LeftHandPinky3
RightShoulder	Spine2
RightArm	RightShoulder
RightForeArm	RightArm
RightHand	RightForeArm
RightHandPinky1	RightHand
RightHandPinky2	RightHandPinky1
RightHandPinky3	RightHandPinky2
RightHandPinky4	RightHandPinky3
RightHandRing1	RightHand
RightHandRing2	RightHandRing1
RightHandRing3	RightHandRing2
RightHandRing4	RightHandRing3
RightHandMiddle1	RightHand
RightHandMiddle2	RightHandMiddle1
RightHandMiddle3	RightHandMiddle2
RightHandMiddle4	RightHandMiddle3
RightHandIndex1	RightHand
RightHandIndex2	RightHandIndex1
RightHandIndex3	RightHandIndex2
RightHandIndex4	RightHandIndex3
RightHandThumb1	RightHand
RightHandThumb2	RightHandThumb1
RightHandThumb3	RightHandThumb2
RightHandThumb4	RightHandThumb3
LeftUpLeg	Hips
LeftLeg	LeftUpLeg
LeftFoot	LeftLeg
LeftToeBase	LeftFoot
RightUpLeg	Hips
RightLeg	RightUpLeg
RightFoot	RightLeg
RightToeBase	RightFoot
[BasePosition]
Hips	0	0	0	0	0	0	1
Spine	0	0	0	0	0	0	1
Spine1	0	0	0	0	0	0	1
Spine2	0	0	0	0	0	0	1
Neck	0	0	0	0	0	0	1
Head	0	0	0	0	0	0	1
LeftEye	0	0	0	0	0	0	1
RightEye	0	0	0	0	0	0	1
LeftShoulder	0	0	0	0	0	0	1
LeftArm	0	0	0	0	0	0	1
LeftForeArm	0	0	0	0	0	0	1
LeftHand	0	0	0	0	0	0	1
LeftHandThumb1	0	0	0	0	0	0	1
LeftHandThumb2	0	0	0	0	0	0	1
LeftHandThumb3	0	0	0	0	0	0	1
LeftHandThumb4	0	0	0	0	0	0	1
LeftHandIndex1	0	0	0	0	0	0	1
LeftHandIndex2	0	0	0	0	0	0	1
LeftHandIndex3	0	0	0	0	0	0	1
LeftHandIndex4	0	0	0	0	0	0	1
LeftHandMiddle1	0	0	0	0	0	0	1
LeftHandMiddle2	0	0	0	0	0	0	1
LeftHandMiddle3	0	0	0	0	0	0	1
LeftHandMiddle4	0	0	0	0	0	0	1
LeftHandRing1	0	0	0	0	0	0	1
LeftHandRing2	0	0	0	0	0	0	1
LeftHandRing3	0	0	0	0	0	0	1
LeftHandRing4	0	0	0	0	0	0	1
LeftHandPinky1	0	0	0	0	0	0	1
LeftHandPinky2	0	0	0	0	0	0	1
LeftHandPinky3	0	0	0	0	0	0	1
LeftHandPinky4	0	0	0	0	0	0	1
RightShoulder	0	0	0	0	0	0	1
RightArm	0	0	0	0	0	0	1
RightForeArm	0	0	0	0	0	0	1
RightHand	0	0	0	0	0	0	1
RightHandPinky1	0	0	0	0	0	0	1
RightHandPinky2	0	0	0	0	0	0	1
RightHandPinky3	0	0	0	0	0	0	1
RightHandPinky4	0	0	0	0	0	0	1
RightHandRing1	0	0	0	0	0	0	1
RightHandRing2	0	0	0	0	0	0	1
RightHandRing3	0	0	0	0	0	0	1
RightHandRing4	0	0	0	0	0	0	1
RightHandMiddle1	0	0	0	0	0	0	1
RightHandMiddle2	0	0	0	0	0	0	1
RightHandMiddle3	0	0	0	0	0	0	1
RightHandMiddle4	0	0	0	0	0	0	1
RightHandIndex1	0	0	0	0	0	0	1
RightHandIndex2	0	0	0	0	0	0	1
RightHandIndex3	0	0	0	0	0	0	1
RightHandIndex4	0	0	0	0	0	0	1
RightHandThumb1	0	0	0	0	0	0	1
RightHandThumb2	0	0	0	0	0	0	1
RightHandThumb3	0	0	0	0	0	0	1
RightHandThumb4	0	0	0	0	0	0	1
LeftUpLeg	0	0	0	0	0	0	1
LeftLeg	0	0	0	0	0	0	1
LeftFoot	0	0	0	0	0	0	1
LeftToeBase	0	0	0	0	0	0	1
RightUpLeg	0	0	0	0	0	0	1
RightLeg	0	0	0	0	0	0	1
RightFoot	0	0	0	0	0	0	1
RightToeBase	0	0	0	0	0	0	1
[Hips]
1	4.749868393	1016.520142	15.54431725	-1.036826491	1.487557054	-5.374033451	1.0
2	22.59069443	1014.197998	9.4471035	-0.7381401658	-1.713346601	-5.349233627	1.0
[Spine]
1	0	101.8159943	1.315000057	1.23350966	-1.264074206	2.978782654	1.0
2	0	101.8159943	1.315000057	1.105332732	-1.801858306	2.912545681	1.0
[Spine1]
1	0	100.8349991	-10.00800037	0.7521902919	0.1872794777	5.947592735	1.0
2	0	100.8349991	-10.00800037	0.6681637764	-0.3773900867	6.08789444	1.0
[Spine2]
1	0	91	-13.73399925	0.7868231535	0.7048848271	5.861685276	1.0
2	0	91	-13.73399925	0.7492486238	0.1377869546	6.009871483	1.0
[Neck]
1	0	166.7169952	-25.16200066	1.056079507	-0.2649561763	-2.169208527	1.0
2	0	166.7169952	-25.16200066	0.6810047626	0.7324113846	-2.008773804	1.0
[Head]
1	0	96.17900085	16.84999847	1.492035866	0.7629026771	-8.123031616	1.0
2	0	96.17900085	16.84999847	0.898330152	2.917590618	-8.473226547	1.0
[LeftEye]
1	30.6760006	64.09500122	92.83599854	0	0	0	1.0
2	30.6760006	64.09500122	92.83599854	0	0	0	1.0
[RightEye]
1	-30.6760006	64.09500122	92.83499908	0	0	0	1.0
2	-30.6760006	64.09500122	92.83499908	0	0	0	1.0
[LeftShoulder]
1	45.70400238	109.4599991	-26.28000069	4.900875568	-13.35861683	-6.051226616	1.0
2	45.70400238	109.4599991	-26.28000069	4.884982109	-13.61447144	-5.800934315	1.0
[LeftArm]
1	105.923996	-5.24600029	-22.32099915	-3.048748016	4.395027161	-83.67140961	1.0
2	105.923996	-5.24600029	-22.32099915	-3.152597427	4.8383255	-84.08322144	1.0
[LeftForeArm]
1	278.414978	-0.0009999999311	0	-8.305260053e-06	-14.50674534	-0.0001637673995	1.0
2	278.414978	-0.0009999999311	0	1.264183766e-06	-14.307127	-0.0001962262613	1.0
[LeftHand]
1	283.2879944	0	0	-27.77377892	-1.110134602	-10.05004787	1.0
2	283.2879944	0	0	-27.70843887	-0.7050007582	-10.13957691	1.0
[LeftHandThumb1]
1	24.6609993	-15.75	26.8239994	18.09016037	-3.880740643	10.23079014	1.0
2	24.6609993	-15.75	26.8239994	18.15544128	-3.815026522	10.2208643	1.0
[LeftHandThumb2]
1	32.29800034	-18.64699936	18.64699936	-0.459059149	32.77690506	-2.855196476	1.0
2	32.29800034	-18.64699936	18.64699936	-0.431396842	32.72220612	-2.817270279	1.0
[LeftHandThumb3]
1	26.52600098	-15.31499958	15.31499958	2.087846994	9.317584991	-0.01894190907	1.0
2	26.52600098	-15.31499958	15.31499958	2.092925072	9.333442688	-0.02314311638	1.0
[LeftHandThumb4]
1	19.54599953	-11.28499985	11.28499985	0	0	0	1.0
2	19.54599953	-11.28499985	11.28499985	0	0	0	1.0
[LeftHandIndex1]
1	91.09299469	-5.170999527	22.60099792	-0.3012967706	4.670429707	-7.844827175	1.0
2	91.09299469	-5.170999527	22.60099792	-0.2902011275	4.676424503	-7.766804695	1.0
[LeftHandIndex2]
1	36.76399994	0	0	-0.6282407641	2.770458937	-20.5731163	1.0
2	36.76399994	0	0	-0.6279985905	2.770007849	-20.56809616	1.0
[LeftHandIndex3]
1	28.83100128	0	0	-0.1097449884	0.8055565953	-10.17071629	1.0
2	28.83100128	0	0	-0.1096563488	0.8050575256	-10.16568756	1.0
[LeftHandIndex4]
1	23.92700005	0	0	0	0	0	1.0
2	23.92700005	0	0	0	0	0	1.0
[LeftHandMiddle1]
1	95.33399963	0	0	-1.521749973	8.677757263	-15.88118362	1.0
2	95.33399963	0	0	-1.511372328	8.67645359	-15.79458904	1.0
[LeftHandMiddle2]
1	36.98199844	0	0	-1.426885843	3.823394299	-33.41776657	1.0
2	36.98199844	0	0	-1.426844716	3.823347807	-33.41711807	1.0
[LeftHandMiddle3]
1	29.50900078	0	0	-0.1490260512	1.485646605	-12.26480579	1.0
2	29.50900078	0	0	-0.149012357	1.485595345	-12.26427841	1.0
[LeftHandMiddle4]
1	28.3390007	0	0	0	0	0	1.0
2	28.3390007	0	0	0	0	0	1.0
[LeftHandRing1]
1	91.04499817	-0.4390000105	-18.65100098	-3.023377895	11.54989338	-26.95901299	1.0
2	91.04499817	-0.4390000105	-18.65100098	-3.016857147	11.56287861	-26.9040947	1.0
[LeftHandRing2]
1	31.54000092	0	0	-1.197485209	4.055516243	-40.20161057	1.0
2	31.54000092	0	0	-1.198014855	4.056192398	-40.21026611	1.0
[LeftHandRing3]
1	29.37700081	0	0	-0.09223496914	1.903375745	-19.33780479	1.0
2	29.37700081	0	0	-0.09244924784	1.904258966	-19.34694672	1.0
[LeftHandRing4]
1	26.47500038	0	0	0	0	0	1.0
2	26.47500038	0	0	0	0	0	1.0
[LeftHandPinky1]
1	80.77799988	-4.887000084	-38.06099701	-5.222203732	16.12825394	-36.90263748	1.0
2	80.77799988	-4.887000084	-38.06099701	-5.21605587	16.16381454	-36.8387146	1.0
[LeftHandPinky2]
1	36	0	0	-1.945595741	3.817507505	-45.66316605	1.0
2	36	0	0	-1.94552207	3.817438602	-45.66212082	1.0
[LeftHandPinky3]
1	21.14200211	0	0	-0.543350935	2.833763123	-20.5273304	1.0
2	21.14200211	0	0	-0.5433082581	2.833669662	-20.52629852	1.0
[LeftHandPinky4]
1	19.75699997	0	0	0	0	0	1.0
2	19.75699997	0	0	0	0	0	1.0
[RightShoulder]
1	-45.70000076	109.4620056	-26.28000069	4.810459137	2.868921518	5.722985268	1.0
2	-45.70000076	109.4620056	-26.28000069	4.906520844	2.631311893	6.101594448	1.0
[RightArm]
1	-105.9280014	-5.248000145	-22.32099915	0.1354189813	1.378134727	67.34005737	1.0
2	-105.9280014	-5.248000145	-22.32099915	-0.46527946	0.9887021184	66.97485352	1.0
[RightForeArm]
1	-278.414978	0	0	-4.945447927e-06	17.7365799	-4.267265467e-06	1.0
2	-278.414978	0	0	-2.974760037e-06	17.35964966	-5.636848073e-06	1.0
[RightHand]
1	-283.2879944	0	0.0009999999311	-12.68407345	-6.830766201	11.79688263	1.0
2	-283.2879944	0	0.0009999999311	-12.05317688	-5.65062952	12.20989609	1.0
[RightHandPinky1]
1	-80.76699829	-4.885000229	-38.06000137	-5.22210741	-16.1293602	36.90296173	1.0
2	-80.76699829	-4.885000229	-38.06000137	-5.302462578	-16.21305275	37.41676331	1.0
[RightHandPinky2]
1	-36	0	0.0009999999311	-1.94421792	-3.815822601	45.66313171	1.0
2	-36	0	0.0009999999311	-1.936719656	-3.809243679	45.56308746	1.0
[RightHandPinky3]
1	-21.14200211	0	0	-0.7654314041	0.05478082597	22.12399292	1.0
2	-21.14200211	0	0	-0.7609097958	0.06368225813	22.02445984	1.0
[RightHandPinky4]
1	-19.75699997	0	0	0	0	0	1.0
2	-19.75699997	0	0	0	0	0	1.0
[RightHandRing1]
1	-91.03599548	-0.4390000105	-18.65100098	-3.023300648	-11.54953289	26.95912743	1.0
2	-91.03599548	-0.4390000105	-18.65100098	-3.094254017	-11.55584812	27.50032425	1.0
[RightHandRing2]
1	-31.54000092	0	0	-1.197298646	-4.055000305	40.20165634	1.0
2	-31.54000092	0	0	-1.195523143	-4.052733421	40.17251968	1.0
[RightHandRing3]
1	-29.37700081	0	0	-0.1383081675	0.09006376565	17.81515694	1.0
2	-29.37700081	0	0	-0.1376848668	0.09296293557	17.78540039	1.0
[RightHandRing4]
1	-26.47500038	0	0	0	0	0	1.0
2	-26.47500038	0	0	0	0	0	1.0
[RightHandMiddle1]
1	-95.32500458	0	0	-1.521727204	-8.677536011	15.88129711	1.0
2	-95.32500458	0	0	-1.599234819	-8.789499283	16.51592445	1.0
[RightHandMiddle2]
1	-36.98199844	0	0	-1.42675972	-3.822958708	33.41783142	1.0
2	-36.98199844	0	0	-1.427387357	-3.823641062	33.42700195	1.0
[RightHandMiddle3]
1	-29.50900078	0	0	-0.2534592152	-1.678245902	15.89936066	1.0
2	-29.50900078	0	0	-0.2537502646	-1.67920053	15.90939999	1.0
[RightHandMiddle4]
1	-28.3390007	0	0.0009999999311	0	0	0	1.0
2	-28.3390007	0	0.0009999999311	0	0	0	1.0
[RightHandIndex1]
1	-91.08300018	-5.167999744	22.60099792	-0.3012933731	-4.670325756	7.844888687	1.0
2	-91.08300018	-5.167999744	22.60099792	-0.3801130652	-4.787172318	8.75724411	1.0
[RightHandIndex2]
1	-36.76399994	0	0	-0.6281940341	-2.77017808	20.5731945	1.0
2	-36.76399994	0	0	-0.6256057024	-2.765383482	20.51958656	1.0
[RightHandIndex3]
1	-28.83100128	0	0	-0.2385089695	-0.1574725807	13.84471416	1.0
2	-28.83100128	0	0	-0.2372280359	-0.1522494256	13.79125214	1.0
[RightHandIndex4]
1	-23.92700005	0	0	0	0	0	1.0
2	-23.92700005	0	0	0	0	0	1.0
[RightHandThumb1]
1	-24.64799881	-15.72700024	26.82600021	18.08984566	3.880954504	-10.23105145	1.0
2	-24.64799881	-15.72700024	26.82600021	17.76756096	4.606570244	-10.26931	1.0
[RightHandThumb2]
1	-32.29800034	-18.64699936	18.64699936	-0.4598045349	-32.77558136	2.856966972	1.0
2	-32.29800034	-18.64699936	18.64699936	-0.4801740348	-33.17710876	2.853710175	1.0
[RightHandThumb3]
1	-26.52600098	-15.31399918	15.31399918	1.866262317	-8.463833809	0.8300146461	1.0
2	-26.52600098	-15.31399918	15.31399918	1.868779302	-8.580536842	0.857847333	1.0
[RightHandThumb4]
1	-19.54599953	-11.28499985	11.28499985	0	0	0	1.0
2	-19.54599953	-11.28499985	11.28499985	0	0	0	1.0
[LeftUpLeg]
1	82.07800293	-67.51699829	-15.99599934	-16.46941948	15.18135262	11.84136105	1.0
2	82.07800293	-67.51699829	-15.99599934	-17.2877388	15.96332359	11.31415749	1.0
[LeftLeg]
1	0	-443.7049866	2.845999956	22.66882515	7.900511742	5.783365726	1.0
2	0	-443.7049866	2.845999956	25.12672424	8.322755814	5.50562048	1.0
[LeftFoot]
1	0	-444.2789917	-29.8219986	-2.002976894	3.082082987	-8.876134872	1.0
2	0	-444.2789917	-29.8219986	-3.791610479	4.998959064	-8.098239899	1.0
[LeftToeBase]
1	0	-87.28699493	107.1060028	-0.4419642389	6.78886272e-06	-1.887272902e-06	1.0
2	0	-87.28699493	107.1060028	-0.1936323345	8.48228774e-06	-2.220942633e-06	1.0
[RightUpLeg]
1	-82.07800293	-67.51699829	-15.99599934	-2.483067751	-4.584860802	10.71703911	1.0
2	-82.07800293	-67.51699829	-15.99599934	-4.765422344	-4.075924873	9.108966827	1.0
[RightLeg]
1	0	-443.7049866	2.861999989	12.17175865	-5.664160252	2.109331131	1.0
2	0	-443.7049866	2.861999989	16.02486801	-5.251590729	2.437542439	1.0
[RightFoot]
1	0	-444.2770081	-29.83799934	-9.877581596	-0.3347150981	-7.819130898	1.0
2	0	-444.2770081	-29.83799934	-11.14416981	1.424095392	-7.138942719	1.0
[RightToeBase]
1	0	-87.28699493	107.1060028	-0.5486550927	-2.63486686e-06	-1.084578571e-06	1.0
2	0	-87.28699493	107.1060028	-0.7157051563	-1.54319855e-06	9.459828902e-07	1.0
[EndOfFile]
